# xmcd
#
# Track frame offsets:
#	150
#	22427
#	32604
#	53231
#	80827
#	106954
#	127326
#	150728
#	179130
#	218839
#	238716
#	262643
#
# Disc length: 3616 seconds
#
# Revision: 0
# Processed by: cddbd v1.5.2PL0 Copyright (c) Steve Scherf et al.
# Submitted via: EasyCDDAExtractor 10.0.2.1
#
DISCID=ae0e1e0c
DTITLE=Judy Mayhan - When I Think of You
DYEAR=1977
DGENRE=blues
TTITLE0=The Moon is a Harsh Mistress
TTITLE1=The Bells
TTITLE2=Down in Your Soul
TTITLE3=He's Funny That Way
TTITLE4=When I Think of You
TTITLE5=Nobody's Home
TTITLE6=Look to the Rainbow
TTITLE7=Ne Me Quitte Pas
TTITLE8=Biloxi
TTITLE9=Swallow Song
TTITLE10=Hands on the Wheel
TTITLE11=Gratitude
EXTD=
EXTT0=
EXTT1=
EXTT2=
EXTT3=
EXTT4=
EXTT5=
EXTT6=
EXTT7=
EXTT8=
EXTT9=
EXTT10=
EXTT11=
PLAYORDER=
